<?xml version="1.0" standalone="no"?>
<!DOCTYPE svg PUBLIC "-//W3C//DTD SVG 20010904//EN"
 "http://www.w3.org/TR/2001/REC-SVG-20010904/DTD/svg10.dtd">
<svg version="1.0" xmlns="http://www.w3.org/2000/svg"
 width="200.000000pt" height="200.000000pt" viewBox="0 0 200.000000 200.000000"
 preserveAspectRatio="xMidYMid meet">
<metadata>
Created by potrace 1.11, written by Peter Selinger 2001-2013
</metadata>
<g transform="translate(0.000000,200.000000) scale(0.100000,-0.100000)"
fill="#000000" stroke="none">
<path d="M166 1978 c-57 -15 -129 -90 -144 -150 -9 -34 -12 -262 -12 -826 0
-870 -2 -847 67 -914 74 -72 22 -68 925 -68 769 0 815 1 854 19 49 22 97 78
113 130 15 53 16 1609 0 1666 -15 56 -92 128 -152 143 -61 16 -1593 15 -1651
0z m1645 -157 l24 -19 0 -796 0 -795 -23 -23 -23 -23 -793 0 c-767 0 -795 1
-815 19 l-21 19 0 798 0 798 26 20 c26 21 33 21 814 21 761 0 789 -1 811 -19z"/>
<path d="M430 1530 c0 -16 7 -20 35 -20 20 0 51 -6 70 -14 54 -23 56 -44 53
-521 l-3 -424 -23 -23 c-15 -15 -38 -24 -74 -28 -40 -4 -54 -9 -56 -22 -3 -17
13 -18 232 -18 229 0 236 1 236 20 0 17 -7 20 -40 20 -51 0 -96 22 -104 52 -3
13 -6 114 -6 226 l0 202 245 0 245 0 0 -215 c0 -216 0 -216 -25 -240 -19 -20
-34 -25 -75 -25 -43 0 -50 -3 -50 -20 0 -19 7 -20 236 -20 219 0 235 1 232 17
-2 14 -16 19 -57 23 -97 10 -92 -19 -89 508 l3 455 26 20 c15 10 47 22 73 24
36 5 46 9 46 24 0 18 -12 19 -235 19 -228 0 -235 -1 -235 -20 0 -16 7 -20 34
-20 42 0 77 -12 99 -35 15 -14 17 -44 17 -221 l0 -204 -245 0 -245 0 0 196 c0
121 4 203 11 216 13 24 67 48 109 48 23 0 30 4 30 20 0 19 -7 20 -235 20 -228
0 -235 -1 -235 -20z"/>
</g>
</svg>
